<?xml version="1.0" encoding="UTF-8" standalone="no"?>
<!DOCTYPE svg PUBLIC "-//W3C//DTD SVG 1.1//EN" "http://www.w3.org/Graphics/SVG/1.1/DTD/svg11.dtd">
<svg xmlns="http://www.w3.org/2000/svg" version="1.1" viewBox="0 0 512 512">
<path fill="#ed1c2e" d="
  M 369.56 0.00
  Q 372.94 0.00 376.31 0.00
  Q 406.16 1.38 429.44 17.31
  Q 463.33 40.50 471.82 80.40
  Q 473.94 90.37 474.06 100.23
  Q 474.35 124.37 463.94 145.44
  Q 448.53 176.62 417.26 192.28
  C 416.78 192.52 416.72 193.19 417.16 193.51
  Q 422.81 197.63 424.81 204.12
  Q 425.72 207.07 425.47 209.95
  Q 425.20 213.01 423.95 215.74
  Q 422.74 218.37 418.64 222.52
  Q 373.50 268.20 327.82 313.35
  Q 322.63 318.48 319.20 319.85
  Q 313.29 322.21 307.24 319.86
  Q 303.99 318.60 299.69 314.41
  Q 287.59 302.62 275.41 290.28
  C 275.21 290.07 274.88 290.06 274.66 290.25
  Q 205.25 350.31 135.95 410.10
  Q 126.95 417.87 121.59 420.62
  Q 102.09 430.63 79.06 422.59
  C 78.61 422.43 78.11 422.63 77.89 423.05
  Q 71.35 435.54 71.91 449.24
  Q 72.68 468.63 85.94 482.56
  Q 90.07 486.90 91.04 492.24
  Q 91.99 497.48 89.58 502.50
  Q 85.79 510.43 75.94 512.00
  Q 74.56 512.00 73.19 512.00
  Q 66.04 510.97 60.50 504.75
  Q 39.07 480.67 38.05 449.99
  Q 37.71 439.77 39.74 430.12
  Q 43.20 413.60 52.99 399.36
  C 53.22 399.03 53.26 398.59 53.08 398.22
  Q 49.57 390.92 48.37 383.08
  Q 47.18 375.31 48.51 367.44
  Q 50.26 357.09 55.87 348.41
  Q 57.65 345.67 68.61 332.99
  Q 126.25 266.29 183.86 199.57
  C 184.05 199.36 184.03 199.03 183.83 198.83
  Q 171.90 186.86 160.07 174.77
  Q 155.98 170.59 154.64 167.32
  Q 150.33 156.80 159.56 147.56
  Q 204.57 102.55 249.59 57.54
  Q 255.85 51.28 259.46 49.81
  Q 266.38 47.01 273.67 50.87
  Q 275.56 51.87 277.45 53.60
  Q 279.24 55.25 280.72 56.93
  C 281.08 57.34 281.75 57.26 281.99 56.77
  Q 295.90 28.92 322.81 13.31
  Q 343.68 1.21 369.56 0.00
  Z
  M 321.71 57.46
  Q 311.85 68.78 307.88 83.26
  C 307.80 83.56 307.88 83.89 308.10 84.11
  L 389.83 165.95
  C 390.18 166.30 390.70 166.43 391.18 166.29
  Q 409.26 161.06 421.86 147.66
  Q 428.69 140.39 433.24 131.31
  Q 442.82 112.15 439.43 90.75
  Q 437.84 80.69 433.55 71.72
  Q 425.53 54.96 410.06 44.94
  Q 392.30 33.42 372.25 33.75
  Q 341.93 34.24 321.71 57.46
  Z
  M 384.6597 208.9541
  C 384.78 208.84 384.78 208.65 384.6597 208.5298
  L 265.7102 89.5803
  C 265.59 89.46 265.40 89.46 265.2859 89.5803
  L 194.0803 160.7859
  C 193.96 160.90 193.96 161.09 194.0803 161.2102
  L 313.0298 280.1597
  C 313.15 280.28 313.34 280.28 313.4541 280.1597
  L 384.6597 208.9541
  Z
  M 210.31 225.19
  Q 209.75 224.63 208.55 223.43
  C 208.36 223.24 208.03 223.25 207.85 223.46
  Q 147.50 293.34 87.47 362.70
  Q 83.90 366.82 82.73 370.12
  Q 79.12 380.22 86.57 387.56
  Q 89.99 390.93 94.30 392.05
  Q 99.10 393.31 103.60 391.77
  Q 106.95 390.62 114.03 384.50
  Q 182.33 325.42 250.81 266.33
  C 251.04 266.14 251.05 265.79 250.84 265.59
  Q 230.58 245.55 210.31 225.19
  Z"
/>
<rect fill="#ed1c2e" x="-50.55" y="-16.84" transform="translate(289.36,184.85) rotate(45.0)" width="101.10" height="33.68" rx="16.46"/>
</svg>
