<?xml version="1.0" encoding="utf-8"?>
<!-- Generator: Adobe Illustrator 27.4.1, SVG Export Plug-In . SVG Version: 6.00 Build 0)  -->
<svg version="1.1" id="SvgjsSvg1058" xmlns:svgjs="http://svgjs.com/svgjs"
	 xmlns="http://www.w3.org/2000/svg" xmlns:xlink="http://www.w3.org/1999/xlink" x="0px" y="0px" viewBox="0 0 288 288"
	 style="enable-background:new 0 0 288 288;" xml:space="preserve">
<style type="text/css">
	.st0{fill:#ED1C2E;stroke:#ED1C2E;stroke-width:7;stroke-miterlimit:10;}
</style>
<g id="SvgjsG1060">
	<path class="st0" d="M211.1,188.4c-10.5-10.6-27.6-10.6-38.2-0.1c0,0,0,0-0.1,0.1l-13.1,13.1c-14.7-9.3-28.3-20.3-40.6-32.6
		c-12.3-12.3-23.2-25.9-32.6-40.6l13-13c10.6-10.5,10.6-27.6,0.1-38.2c0,0,0,0-0.1-0.1L74.2,51.6c-5-5.1-11.8-8-19-7.9l0,0
		c-7.2,0-14.1,2.8-19.2,7.9L23.8,63.7C11.9,76.4,6.5,93.8,9,111c2.9,33.8,25,74.3,59.1,108.5S143.3,275.8,177,279
		c2.5,0.1,5,0.1,7.6,0c14.7,0.6,29-4.7,39.7-14.8l12.2-12.2c5.1-5.1,7.9-12,7.9-19.2c0-7.1-2.8-14-7.9-19L211.1,188.4z M223.7,239.3
		l-12.2,12.2c-9.2,7.6-21.2,10.9-32.9,9c-29.2-2.5-66.5-23.2-97.3-54s-51.5-67.8-54.3-97c-2-11.8,1.3-23.8,9-32.9l12.7-12.2
		c1.7-1.7,4-2.6,6.4-2.6l0,0c2.4,0,4.7,0.9,6.4,2.6L86.9,90c3.5,3.5,3.5,9.2,0,12.7l-18,18c-2.9,2.9-3.5,7.4-1.4,10.9
		c10.8,18.3,23.9,35.2,39,50.2c15,15.1,31.9,28.2,50.2,39c3.5,2,8,1.5,10.9-1.4l18-18c3.5-3.5,9.2-3.5,12.7,0l25.5,25.5l0,0
		c1.7,1.7,2.6,4,2.6,6.4C226.3,235.5,225.4,237.7,223.7,239.3z M239.4,48.5C214.1,23.2,179.8,8.9,144,9c-5,0-9,4-9,9s4,9,9,9
		c64.6,0,117,52.4,117,117c0,0.3,0,0.7,0,1c0,5,4,9,9,9l0,0c5,0,9-4,9-9C279.3,108.8,265.1,74,239.4,48.5z"/>
	<path class="st0" d="M188.2,100c10.3,10.3,16.1,24.2,15.9,38.8c0,5,4,9,9,9l0,0c5,0,9-4,9-9c0.5-39.8-31.3-72.4-71.1-72.9
		c-0.3,0-0.6,0-0.9,0c-5,0-9,4-9,9s4,9,9,9C164.4,84,178.1,89.8,188.2,100z"/>
</g>
</svg>
