<?xml version="1.0" encoding="UTF-8" standalone="no"?>
<!DOCTYPE svg PUBLIC "-//W3C//DTD SVG 1.1//EN" "http://www.w3.org/Graphics/SVG/1.1/DTD/svg11.dtd">
<svg xmlns="http://www.w3.org/2000/svg" version="1.1" viewBox="0 0 512 512">
<path fill="#ed1c2e" d="
  M 419.19 52.81
  Q 414.19 47.84 407.23 46.73
  Q 405.78 46.50 394.26 46.50
  Q 248.53 46.50 102.80 46.50
  Q 89.08 46.50 86.74 47.03
  Q 78.23 48.97 73.00 57.00
  Q 69.64 62.17 69.64 68.75
  Q 69.75 256.75 69.75 444.75
  Q 69.75 451.37 74.84 457.42
  Q 79.74 463.25 86.59 464.88
  Q 89.18 465.50 99.96 465.50
  Q 137.60 465.50 175.25 465.50
  Q 179.17 465.50 182.29 465.89
  Q 186.14 466.37 188.87 468.14
  Q 194.30 471.66 195.10 477.91
  Q 195.82 483.61 192.76 488.11
  Q 190.54 491.37 186.83 493.06
  Q 184.24 494.24 179.47 494.30
  Q 138.57 494.79 97.67 494.36
  Q 85.03 494.23 78.97 492.66
  Q 65.56 489.19 55.75 479.25
  Q 40.85 464.16 40.84 442.00
  Q 40.75 259.50 40.75 77.00
  Q 40.75 69.67 41.03 65.75
  Q 42.50 44.86 57.81 30.81
  Q 72.38 17.45 93.08 17.71
  Q 94.14 17.72 96.41 17.58
  Q 97.77 17.50 99.75 17.50
  Q 296.79 17.47 397.97 17.73
  Q 410.03 17.76 415.91 19.20
  Q 431.76 23.10 442.56 35.94
  Q 454.74 50.41 454.69 70.00
  Q 454.51 135.87 454.50 201.74
  Q 454.50 208.45 453.08 211.55
  Q 450.93 216.23 446.19 218.38
  Q 441.89 220.34 437.12 219.32
  Q 428.58 217.49 426.06 207.94
  Q 425.55 205.98 425.57 200.25
  Q 425.74 139.67 425.75 79.09
  Q 425.75 66.47 425.59 65.42
  Q 424.49 58.09 419.19 52.81
  Z"
/>
<rect fill="#ed1c2e" x="129.33" y="105.27" width="236.80" height="28.72" rx="14.17"/>
<rect fill="#ed1c2e" x="129.32" y="186.51" width="236.82" height="28.72" rx="14.17"/>
<path fill="#ed1c2e" d="
  M 256.93 494.09
  Q 247.34 493.00 240.53 486.22
  Q 232.79 478.51 231.91 468.57
  Q 231.58 464.82 234.00 449.99
  Q 237.72 427.18 239.50 417.75
  Q 241.18 408.89 247.80 402.30
  Q 308.95 341.41 369.98 280.39
  Q 382.06 268.31 384.37 266.50
  Q 396.62 256.86 412.50 255.25
  Q 430.35 253.44 446.19 263.31
  Q 461.37 272.77 467.54 289.38
  Q 471.05 298.79 470.98 308.97
  Q 470.87 325.35 461.74 338.70
  Q 458.61 343.26 448.36 353.51
  Q 389.72 412.15 331.08 470.79
  Q 321.67 480.20 320.97 480.76
  Q 314.98 485.52 307.75 486.75
  Q 286.88 490.30 266.00 493.75
  Q 261.07 494.56 256.93 494.09
  Z
  M 435.79 291.96
  Q 426.48 281.98 412.77 284.38
  Q 405.82 285.60 399.81 291.31
  Q 392.06 298.68 383.80 307.08
  C 383.50 307.38 383.51 307.88 383.81 308.18
  L 418.14 342.40
  C 418.34 342.59 418.65 342.59 418.84 342.40
  Q 424.19 336.92 429.60 331.50
  Q 437.82 323.26 439.70 319.49
  Q 443.78 311.29 441.02 301.31
  Q 439.55 295.98 435.79 291.96
  Z
  M 327.74 433.39
  Q 362.68 398.49 397.58 363.55
  C 397.78 363.34 397.78 363.02 397.59 362.83
  L 363.55 328.68
  C 363.21 328.34 362.66 328.33 362.32 328.67
  L 267.91 423.21
  C 267.69 423.44 267.54 423.73 267.48 424.06
  L 260.55 465.48
  C 260.49 465.80 260.78 466.09 261.10 466.03
  L 301.18 458.73
  Q 302.91 458.42 304.14 457.21
  Q 310.34 451.15 316.00 445.35
  Q 324.87 436.26 327.74 433.39
  Z"
/>
<path fill="#ed1c2e" d="
  M 256.80 270.45
  Q 261.89 274.30 262.66 279.98
  Q 263.38 285.35 260.26 290.03
  Q 256.02 296.40 247.00 296.41
  Q 198.37 296.50 149.75 296.50
  Q 144.45 296.50 142.02 296.12
  Q 135.17 295.03 131.79 290.06
  Q 128.67 285.47 129.64 279.43
  Q 130.81 272.17 137.52 269.22
  Q 140.83 267.77 147.69 267.69
  Q 207.48 267.05 249.75 267.75
  Q 253.31 267.81 256.80 270.45
  Z"
/>
</svg>
