<?xml version="1.0" encoding="UTF-8"?><svg id="Capa_1" xmlns="http://www.w3.org/2000/svg" viewBox="0 0 924.42 298.82"><defs><style>.cls-1{fill:#ed1c2e;}</style></defs><polygon class="cls-1" points="298.82 99.6 199.22 99.6 199.22 0 99.6 0 99.6 99.6 0 99.6 0 199.22 99.6 199.22 99.6 298.82 199.22 298.82 199.22 199.22 298.82 199.22 298.82 99.6"/><path d="m400.89,26.75l-.8,9.57c-2.56-1.53-4.91-2.6-7.04-3.2-2.13-.6-4.52-.9-7.18-.9-3.76,0-7.21.62-10.35,1.87-3.14,1.25-5.88,3.04-8.21,5.4s-4.12,5.14-5.39,8.36c-1.26,3.22-1.9,6.78-1.9,10.67,0,5.12,1.14,9.74,3.42,13.89,2.28,4.14,5.42,7.38,9.43,9.72,4.01,2.34,8.49,3.5,13.45,3.5,4.62,0,9.48-1.04,14.57-3.12l.75,9.62c-2.66.89-5.08,1.51-7.26,1.87-2.18.36-4.76.54-7.76.54-7.15,0-13.53-1.42-19.14-4.25-5.61-2.83-9.99-6.95-13.15-12.35-3.16-5.4-4.74-11.81-4.74-19.21,0-6.75,1.5-12.79,4.52-18.11,3.01-5.32,7.25-9.46,12.72-12.43,5.47-2.97,11.65-4.45,18.54-4.45,5.95,0,11.13,1.01,15.52,3.02Z"/><path d="m420.53,24.14h16.34c4.09,0,7.15.13,9.19.38,2.04.26,4.11.76,6.2,1.51,2.3.78,4.29,1.97,5.96,3.56,1.67,1.59,2.97,3.5,3.91,5.75.94,2.25,1.4,4.66,1.4,7.21,0,4.5-1.29,8.16-3.86,10.97-2.57,2.81-6.09,4.61-10.57,5.4,2.17,1.06,3.79,2.19,4.85,3.4,1.07,1.21,2.28,3.28,3.65,6.21l11.46,25.47h-11.16l-8.77-20.97c-1.33-3.14-2.49-5.38-3.49-6.73-1-1.35-2.22-2.25-3.66-2.71-1.45-.46-3.5-.69-6.16-.69h-5.58v31.1h-9.73V24.14Zm9.73,8.59v21.59h6.02c11.49,0,17.23-3.63,17.23-10.9,0-4.37-1.5-7.24-4.51-8.62-3-1.38-6.91-2.07-11.72-2.07h-7.02Z"/><path d="m540.51,24.24v39.29c0,5.39-.29,9.57-.87,12.53s-1.62,5.66-3.12,8.08c-2.26,3.68-5.29,6.48-9.08,8.39-3.79,1.91-8.18,2.86-13.17,2.86-3.76,0-7.21-.56-10.35-1.69-3.14-1.12-5.85-2.74-8.11-4.83-2.26-2.1-4.06-4.68-5.39-7.75-1.76-4.02-2.64-10.31-2.64-18.88V24.24h9.73v36.57c0,4.77.16,8.42.47,10.95.32,2.52.97,4.77,1.97,6.75,1.3,2.63,3.25,4.68,5.86,6.16,2.61,1.48,5.53,2.23,8.76,2.23,3.59,0,6.55-.82,8.88-2.46,2.33-1.64,4.07-3.84,5.21-6.62,1.15-2.78,1.82-5.98,2.02-9.59.07-.89.1-3.22.1-7.01V24.24h9.73Z"/><path d="m606.91,24.14v9.21l-29.26,42.97c-.6.92-1.15,1.73-1.64,2.43-.5.7-1.01,1.42-1.55,2.15-.53.73-1.11,1.57-1.72,2.51-.62.94-1.12,1.71-1.52,2.33,1.63-.14,4.14-.2,7.53-.2h28.81v8.49h-47.5v-8.49l27.56-41.08c.7-1.02,1.44-2.12,2.24-3.3.8-1.18,1.46-2.14,1.99-2.89.53-.75,1.3-1.77,2.29-3.04s1.76-2.21,2.29-2.79c-3.19.2-6.36.31-9.52.31h-25.62v-8.59h45.61Z"/><path d="m664.05,24.14h16.34c4.08,0,7.15.13,9.19.38,2.04.26,4.11.76,6.2,1.51,2.3.78,4.29,1.97,5.96,3.56,1.67,1.59,2.97,3.5,3.91,5.75.94,2.25,1.4,4.66,1.4,7.21,0,4.5-1.29,8.16-3.86,10.97s-6.09,4.61-10.56,5.4c2.17,1.06,3.78,2.19,4.85,3.4,1.07,1.21,2.28,3.28,3.65,6.21l11.46,25.47h-11.16l-8.77-20.97c-1.33-3.14-2.49-5.38-3.49-6.73-1-1.35-2.22-2.25-3.66-2.71s-3.5-.69-6.16-.69h-5.58v31.1h-9.73V24.14Zm9.73,8.59v21.59h6.02c11.49,0,17.23-3.63,17.23-10.9,0-4.37-1.5-7.24-4.51-8.62-3-1.38-6.91-2.07-11.73-2.07h-7.02Z"/><path d="m760.23,22.86c6.85,0,12.78,1.54,17.79,4.63,5.01,3.09,8.81,7.37,11.4,12.84,2.6,5.47,3.89,11.74,3.89,18.8,0,5.52-.76,10.53-2.27,15.01-1.51,4.48-3.71,8.31-6.59,11.48s-6.33,5.59-10.35,7.26-8.55,2.51-13.57,2.51c-6.82,0-12.74-1.56-17.76-4.68-5.02-3.12-8.84-7.43-11.45-12.94-2.61-5.51-3.92-11.72-3.92-18.65,0-5.22.73-10.03,2.2-14.45,1.46-4.42,3.59-8.24,6.39-11.48,2.79-3.24,6.26-5.77,10.4-7.6,4.14-1.82,8.76-2.74,13.85-2.74Zm-.1,7.88c-4.36,0-8.24,1.19-11.65,3.56-3.41,2.37-6.04,5.71-7.88,10.03-1.85,4.31-2.77,9.22-2.77,14.71,0,4.06.55,7.88,1.65,11.46s2.66,6.64,4.69,9.18c2.03,2.54,4.42,4.48,7.16,5.83,2.74,1.35,5.78,2.02,9.11,2.02s6.26-.68,9.01-2.05c2.74-1.36,5.14-3.33,7.19-5.88,2.04-2.56,3.6-5.52,4.66-8.88,1.06-3.36,1.6-7.12,1.6-11.28,0-4.36-.53-8.29-1.6-11.79-1.06-3.5-2.62-6.52-4.66-9.08-2.05-2.56-4.47-4.5-7.26-5.83-2.79-1.33-5.87-2-9.23-2Z"/><path d="m834.86,24.14v52.89c-.1,3.89-.87,7.16-2.32,9.82-1.45,2.66-3.52,4.67-6.21,6.04-2.69,1.36-5.99,2.05-9.88,2.05-1.9,0-4.76-.41-8.58-1.23v-8.74c2.46.99,4.84,1.48,7.13,1.48s4.3-.51,5.71-1.53c1.41-1.02,2.44-2.35,3.07-3.99s1.01-3.36,1.15-5.16c.13-1.81.2-4.04.2-6.7V24.14h9.73Z"/><path d="m891,24.14l29.52,69.87h-10.97l-7.13-17.7h-33.11l-7.03,17.7h-10.52l29.02-69.87h10.22Zm8.03,43.68l-7.83-19.49c-1.56-3.72-2.73-6.64-3.49-8.77-.76-2.13-1.45-4.41-2.04-6.83-.5,1.88-1.09,3.74-1.77,5.6-.68,1.86-2,5.26-3.96,10.21l-7.53,19.28h26.63Z"/><path d="m386.41,133.51l27.63,69.87h-10.27l-6.67-17.7h-30.99l-6.58,17.7h-9.85l27.16-69.87h9.57Zm7.51,43.68l-7.33-19.49c-1.46-3.72-2.55-6.64-3.27-8.77-.72-2.13-1.35-4.41-1.91-6.83-.47,1.88-1.02,3.74-1.66,5.6-.64,1.86-1.88,5.26-3.71,10.21l-7.05,19.28h24.92Z"/><path d="m429.9,133.51h15.3c3.82,0,6.69.13,8.6.38,1.91.26,3.85.76,5.81,1.51,2.16.78,4.02,1.97,5.58,3.56,1.56,1.59,2.78,3.5,3.66,5.75.88,2.25,1.31,4.66,1.31,7.21,0,4.5-1.2,8.16-3.61,10.97-2.41,2.81-5.7,4.61-9.89,5.4,2.03,1.06,3.54,2.19,4.54,3.4,1,1.21,2.14,3.28,3.42,6.22l10.72,25.47h-10.44l-8.21-20.97c-1.24-3.14-2.33-5.38-3.27-6.73-.93-1.35-2.08-2.25-3.43-2.71-1.35-.46-3.27-.69-5.76-.69h-5.23v31.1h-9.11v-69.87Zm9.11,8.59v21.59h5.64c10.75,0,16.12-3.63,16.12-10.9,0-4.37-1.41-7.24-4.22-8.62-2.81-1.38-6.47-2.07-10.97-2.07h-6.57Z"/><path d="m541.45,136.42l-.61,9.67c-2.55-1.57-5.1-2.71-7.66-3.43s-5.42-1.07-8.59-1.07c-5.04,0-9.51,1.12-13.4,3.35-3.89,2.23-6.9,5.38-9.03,9.44-2.13,4.06-3.2,8.63-3.2,13.71s1.08,10.07,3.24,14.25c2.16,4.18,5.21,7.4,9.16,9.67,3.95,2.27,8.47,3.4,13.57,3.4,2.67,0,5.55-.48,8.63-1.43v-20.21h-13.67v-8.49h22.77v35.4c-3.21,1.16-6.25,1.99-9.13,2.48-2.88.49-5.92.74-9.13.74-5.32,0-10.15-.82-14.48-2.46-4.33-1.64-8.06-4.04-11.21-7.21-3.14-3.17-5.52-6.96-7.12-11.36-1.6-4.4-2.41-9.36-2.41-14.88,0-7.26,1.53-13.53,4.6-18.8s7.24-9.27,12.51-12c5.28-2.73,11.18-4.09,17.72-4.09s12.16,1.11,17.42,3.32Z"/><path d="m601.21,133.51v8.59h-26.39v20.51h24.47v8.59h-24.47v23.68h27.13v8.49h-36.24v-69.87h35.49Z"/><path d="m674.29,133.51v69.87h-11.77l-20.18-37.9c-3.49-6.75-5.89-11.54-7.22-14.35-1.32-2.81-2.5-6.03-3.53-9.64.53,7.67.79,16.47.79,26.4v35.5h-9.11v-69.87h12.42l21.72,41.18c4.39,8.36,7.33,15.02,8.83,20-.41-4.67-.64-7.81-.7-9.41-.06-2.73-.12-5.42-.16-8.08s-.08-4.33-.09-5.01c-.02-.68-.02-2.37-.02-5.06v-33.61h9.01Z"/><path d="m739.7,133.51v8.59h-19.99v61.28h-9.11v-61.28h-20.36v-8.59h49.46Z"/><path d="m765.32,133.51v69.87h-9.11v-69.87h9.11Z"/><path d="m840.58,133.51v69.87h-11.77l-20.17-37.9c-3.49-6.75-5.89-11.54-7.22-14.35-1.32-2.81-2.5-6.03-3.53-9.64.53,7.67.79,16.47.79,26.4v35.5h-9.11v-69.87h12.42l21.72,41.18c4.39,8.36,7.33,15.02,8.83,20-.4-4.67-.64-7.81-.7-9.41-.06-2.73-.12-5.42-.16-8.08-.05-2.66-.08-4.33-.09-5.01-.02-.68-.02-2.37-.02-5.06v-33.61h9.01Z"/><path d="m893.22,133.51l27.63,69.87h-10.27l-6.67-17.7h-30.99l-6.58,17.7h-9.85l27.16-69.87h9.57Zm7.51,43.68l-7.33-19.49c-1.46-3.72-2.55-6.64-3.27-8.77-.72-2.13-1.35-4.41-1.91-6.83-.47,1.88-1.02,3.74-1.66,5.6-.64,1.86-1.88,5.26-3.71,10.21l-7.05,19.28h24.92Z"/><path d="m356.51,263.03v15.14h-6.53v-34.94h17.76v5.75h-11.28v8.29h10.83v5.75h-10.78Z"/><path d="m385.09,278.17h-6.46v-34.94h6.46v34.94Z"/><path d="m416.81,272.47v5.7h-18.93v-34.94h6.46v29.23h12.47Z"/><path d="m433.02,278.17h-6.46v-34.94h6.46v34.94Z"/><path d="m474.89,278.17h-7.04l-2.78-7.93h-13.21l-2.74,7.93h-6.66l12.46-34.94h7.18l12.79,34.94Zm-11.78-13.68l-4.11-12.35c-.09-.27-.3-1.04-.63-2.3-.12.53-.25,1.06-.38,1.6-.12.54-.23.97-.33,1.29l-3.83,11.76h9.28Z"/><path d="m502.86,272.47v5.7h-18.92v-34.94h6.46v29.23h12.47Z"/><path d="m562.72,278.17h-7.91l-11.14-34.94h6.9l6.81,22.48c.56,1.74,1.08,3.61,1.54,5.6.51-2.25,1.05-4.3,1.61-6.14l6.62-21.94h6.41l-10.85,34.94Z"/><path d="m589.41,278.17h-6.46v-34.94h6.46v34.94Z"/><path d="m621.13,272.47v5.7h-18.92v-34.94h6.46v29.23h12.47Z"/><path d="m649.5,272.47v5.7h-18.93v-34.94h6.46v29.23h12.47Z"/><path d="m688.02,278.17h-7.04l-2.78-7.93h-13.21l-2.73,7.93h-6.66l12.46-34.94h7.18l12.79,34.94Zm-11.78-13.68l-4.11-12.35c-.09-.27-.3-1.04-.63-2.3-.12.53-.25,1.06-.37,1.6-.12.54-.23.97-.33,1.29l-3.83,11.76h9.28Z"/><path d="m754.9,271.11l.23,6.16c-2.65.77-5.08,1.15-7.28,1.15-2.5,0-4.8-.36-6.93-1.07s-3.99-1.81-5.6-3.29c-1.61-1.47-2.85-3.3-3.72-5.49-.87-2.18-1.3-4.7-1.3-7.54s.39-5.4,1.17-7.65c.78-2.25,1.92-4.16,3.4-5.72,1.49-1.56,3.28-2.73,5.37-3.52s4.43-1.18,7.02-1.18c2.31,0,4.88.5,7.72,1.51l-.52,5.99c-2.11-1.26-4.39-1.89-6.85-1.89-2.09,0-3.93.49-5.52,1.47-1.59.98-2.81,2.35-3.66,4.1-.85,1.76-1.28,3.78-1.28,6.06s.45,4.5,1.35,6.39c.9,1.89,2.17,3.36,3.82,4.4,1.65,1.04,3.59,1.56,5.8,1.56s4.36-.49,6.76-1.46Z"/><path d="m771.32,278.17h-6.53v-34.94h10.49c2.11,0,4.02.25,5.75.75s3.12,1.43,4.18,2.79c1.06,1.36,1.59,3.24,1.59,5.67,0,2.23-.58,4.08-1.73,5.54-1.16,1.46-2.74,2.36-4.75,2.7,1.04.43,1.82,1.05,2.34,1.87s1.04,1.96,1.59,3.43l4.61,12.2h-7.18l-3.51-9.9c-.48-1.43-.99-2.46-1.52-3.08-.53-.62-1.19-1.03-1.98-1.23-.79-.2-1.91-.29-3.36-.29v14.5Zm-.05-19.9h2.88c1.67,0,3.04-.38,4.13-1.15,1.08-.77,1.62-1.99,1.62-3.68,0-3.17-1.74-4.76-5.22-4.76h-3.42v9.59Z"/><path d="m817.29,272.47v5.7h-19.11v-34.94h18.92v5.75h-12.47v8.44h11.42v5.7h-11.42v9.34h12.66Z"/><path d="m828.18,277.38l.59-6.27c2.53,1.5,4.94,2.25,7.24,2.25,1.48,0,2.78-.4,3.9-1.2,1.12-.8,1.68-1.98,1.68-3.53s-.47-2.69-1.42-3.35-2.66-1.58-5.14-2.75c-2.48-1.17-4.35-2.47-5.59-3.91-1.24-1.44-1.86-3.5-1.86-6.18,0-2.23.52-4.1,1.56-5.59,1.04-1.49,2.41-2.59,4.12-3.3,1.71-.71,3.57-1.06,5.59-1.06,2.7,0,5.25.46,7.64,1.38l-.54,5.75c-2.32-1.16-4.53-1.74-6.62-1.74-1.37,0-2.57.34-3.59,1.01-1.02.67-1.53,1.74-1.53,3.18s.38,2.33,1.15,2.84c.76.51,2.5,1.42,5.21,2.72,2.71,1.3,4.7,2.69,5.98,4.17,1.28,1.48,1.92,3.54,1.92,6.2,0,1.89-.32,3.53-.96,4.91s-1.53,2.52-2.66,3.41c-1.13.9-2.43,1.56-3.89,1.98s-3.01.64-4.65.64c-2.59,0-5.29-.53-8.1-1.59Z"/><path d="m865.82,264.92v13.25h-6.46v-34.94h8.77c1.81,0,3.44.15,4.9.46,1.46.31,2.78.9,3.97,1.79,1.2.94,2.14,2.15,2.83,3.63s1.03,3.07,1.03,4.76c0,1.94-.32,3.63-.96,5.06s-1.51,2.6-2.62,3.49-2.41,1.55-3.91,1.97c-1.5.42-3.09.63-4.77.63-.64,0-1.57-.03-2.78-.1Zm0-5.4c1.12,0,2.15-.05,3.08-.15s1.77-.32,2.51-.67c.75-.34,1.36-.89,1.84-1.66.48-.77.71-1.77.71-3.02,0-1.69-.39-2.92-1.17-3.7-.78-.78-1.71-1.25-2.8-1.43-1.08-.18-2.48-.29-4.18-.32v10.95Z"/><path d="m920.16,260.93c0,3.48-.62,6.59-1.86,9.33-1.24,2.75-3.04,4.88-5.39,6.41-2.35,1.53-5.13,2.29-8.33,2.29s-6.12-.77-8.49-2.3c-2.37-1.54-4.16-3.69-5.37-6.46-1.21-2.77-1.81-5.95-1.81-9.53s.61-6.74,1.82-9.49c1.22-2.75,3.01-4.88,5.37-6.41,2.36-1.53,5.19-2.29,8.48-2.29,2.5,0,4.73.45,6.69,1.36,1.97.9,3.6,2.18,4.91,3.84,1.31,1.65,2.3,3.6,2.97,5.83.67,2.23,1.01,4.71,1.01,7.42Zm-6.85-.15c0-1.52-.17-3.04-.51-4.55-.34-1.52-.88-2.91-1.6-4.17-.73-1.26-1.64-2.27-2.75-3.03-1.11-.76-2.41-1.14-3.91-1.14-1.96,0-3.61.64-4.92,1.92-1.32,1.28-2.29,2.91-2.91,4.9-.62,1.99-.94,4.01-.94,6.08s.31,4.08.94,6.05c.62,1.97,1.6,3.58,2.94,4.85,1.33,1.26,2.98,1.89,4.95,1.89,1.47,0,2.76-.38,3.87-1.13,1.11-.75,2.03-1.76,2.74-3.02.71-1.26,1.24-2.64,1.59-4.14.35-1.5.53-3,.53-4.5Z"/></svg>