<?xml version="1.0" encoding="UTF-8"?><svg id="Capa_1" xmlns="http://www.w3.org/2000/svg" viewBox="0 0 675.53 791.47"><defs><style>.cls-1{fill:#ed1c2e;}</style></defs><polygon class="cls-1" points="541.92 134.16 407.76 134.16 407.76 0 273.59 0 273.59 134.16 139.42 134.16 139.42 268.34 273.59 268.34 273.59 402.5 407.76 402.5 407.76 268.34 541.92 268.34 541.92 134.16"/><path d="m66.58,507.79l-.91,10.68c-2.93-1.71-5.62-2.9-8.06-3.57-2.44-.67-5.18-1-8.23-1-4.3,0-8.25.7-11.85,2.08-3.6,1.39-6.73,3.4-9.4,6.03s-4.72,5.74-6.17,9.34c-1.45,3.6-2.17,7.57-2.17,11.91,0,5.71,1.3,10.88,3.91,15.51,2.61,4.63,6.21,8.25,10.8,10.85,4.59,2.61,9.72,3.91,15.4,3.91,5.29,0,10.85-1.16,16.68-3.48l.86,10.74c-3.05.99-5.82,1.68-8.31,2.08-2.5.4-5.46.6-8.88.6-8.19,0-15.49-1.58-21.91-4.74-6.42-3.16-11.44-7.76-15.05-13.8-3.62-6.04-5.43-13.19-5.43-21.45,0-7.54,1.72-14.28,5.17-20.22,3.45-5.94,8.3-10.57,14.57-13.88,6.26-3.31,13.34-4.97,21.22-4.97,6.82,0,12.74,1.12,17.77,3.37Z"/><path d="m89.06,504.88h18.71c4.68,0,8.19.14,10.52.43,2.34.29,4.71.85,7.1,1.69,2.64.88,4.92,2.2,6.83,3.97,1.91,1.77,3.4,3.91,4.48,6.43s1.61,5.2,1.61,8.06c0,5.03-1.47,9.11-4.41,12.25-2.94,3.14-6.98,5.15-12.1,6.03,2.48,1.18,4.33,2.45,5.56,3.8,1.22,1.35,2.62,3.67,4.18,6.94l13.12,28.45h-12.77l-10.04-23.42c-1.52-3.5-2.85-6.01-3.99-7.51-1.14-1.5-2.54-2.51-4.19-3.03-1.66-.51-4-.77-7.05-.77h-6.39v34.73h-11.14v-78.04Zm11.14,9.6v24.11h6.9c13.15,0,19.72-4.06,19.72-12.17,0-4.88-1.72-8.08-5.16-9.63-3.44-1.54-7.91-2.31-13.42-2.31h-8.04Z"/><path d="m226.43,504.99v43.88c0,6.02-.33,10.68-1,14-.67,3.31-1.86,6.32-3.57,9.03-2.59,4.11-6.05,7.24-10.4,9.37-4.34,2.13-9.37,3.2-15.08,3.2-4.3,0-8.26-.63-11.85-1.89-3.6-1.26-6.69-3.06-9.28-5.4-2.59-2.34-4.65-5.23-6.17-8.66-2.02-4.49-3.03-11.52-3.03-21.08v-42.45h11.14v40.85c0,5.33.18,9.41.54,12.22.36,2.82,1.11,5.33,2.26,7.54,1.49,2.93,3.72,5.23,6.71,6.88,2.99,1.66,6.33,2.48,10.03,2.48,4.11,0,7.5-.91,10.17-2.74,2.67-1.83,4.66-4.29,5.97-7.4,1.31-3.1,2.08-6.67,2.31-10.71.08-.99.11-3.6.11-7.83v-41.3h11.14Z"/><path d="m302.45,504.88v10.28l-33.5,47.99c-.69,1.03-1.31,1.93-1.88,2.71-.57.78-1.16,1.58-1.77,2.4-.61.82-1.27,1.75-1.97,2.8-.7,1.05-1.29,1.91-1.74,2.6,1.86-.15,4.74-.23,8.62-.23h32.99v9.48h-54.39v-9.48l31.56-45.87c.8-1.14,1.65-2.37,2.57-3.69.91-1.31,1.67-2.39,2.28-3.23.61-.84,1.48-1.97,2.62-3.4,1.14-1.43,2.02-2.46,2.62-3.11-3.65.23-7.29.34-10.9.34h-29.33v-9.6h52.22Z"/><path d="m381.89,504.88h18.71c4.68,0,8.19.14,10.52.43,2.34.29,4.71.85,7.1,1.69,2.64.88,4.92,2.2,6.83,3.97,1.91,1.77,3.4,3.91,4.48,6.43s1.61,5.2,1.61,8.06c0,5.03-1.47,9.11-4.41,12.25-2.94,3.14-6.98,5.15-12.1,6.03,2.48,1.18,4.33,2.45,5.56,3.8,1.22,1.35,2.62,3.67,4.18,6.94l13.12,28.45h-12.77l-10.04-23.42c-1.52-3.5-2.85-6.01-3.99-7.51-1.14-1.5-2.54-2.51-4.19-3.03-1.66-.51-4-.77-7.05-.77h-6.39v34.73h-11.14v-78.04Zm11.14,9.6v24.11h6.9c13.15,0,19.72-4.06,19.72-12.17,0-4.88-1.72-8.08-5.16-9.63-3.44-1.54-7.91-2.31-13.42-2.31h-8.04Z"/><path d="m492.02,503.45c7.85,0,14.63,1.72,20.37,5.17,5.73,3.45,10.08,8.23,13.05,14.34,2.97,6.11,4.46,13.11,4.46,21,0,6.17-.87,11.76-2.6,16.77-1.73,5.01-4.25,9.28-7.54,12.83-3.29,3.54-7.25,6.25-11.85,8.11-4.61,1.87-9.79,2.8-15.54,2.8-7.81,0-14.59-1.74-20.34-5.23-5.75-3.49-10.12-8.3-13.11-14.45-2.99-6.15-4.48-13.09-4.48-20.82,0-5.83.84-11.21,2.51-16.14,1.68-4.93,4.11-9.21,7.31-12.83s7.17-6.45,11.91-8.48c4.74-2.04,10.03-3.06,15.85-3.06Zm-.11,8.8c-4.99,0-9.44,1.32-13.34,3.97-3.9,2.65-6.91,6.38-9.03,11.2-2.11,4.82-3.17,10.29-3.17,16.42,0,4.53.63,8.8,1.88,12.8s3.05,7.42,5.37,10.25c2.32,2.84,5.06,5.01,8.2,6.51,3.14,1.5,6.62,2.26,10.43,2.26s7.17-.76,10.31-2.29c3.14-1.52,5.88-3.71,8.23-6.57,2.34-2.86,4.12-6.16,5.34-9.91,1.22-3.75,1.83-7.95,1.83-12.6,0-4.88-.61-9.26-1.83-13.17-1.22-3.9-3-7.28-5.34-10.14-2.34-2.86-5.11-5.03-8.31-6.51s-6.72-2.23-10.57-2.23Z"/><path d="m577.46,504.88v59.07c-.11,4.34-1,8-2.66,10.97-1.66,2.97-4.03,5.22-7.11,6.74-3.08,1.52-6.86,2.29-11.31,2.29-2.17,0-5.45-.46-9.83-1.38v-9.76c2.82,1.1,5.54,1.66,8.17,1.66s4.92-.57,6.54-1.71c1.62-1.14,2.79-2.63,3.51-4.45.72-1.83,1.16-3.75,1.31-5.76s.23-4.51.23-7.48v-50.17h11.14Z"/><path d="m641.73,504.88l33.8,78.04h-12.56l-8.16-19.77h-37.91l-8.05,19.77h-12.04l33.22-78.04h11.7Zm9.19,48.79l-8.96-21.77c-1.79-4.15-3.12-7.42-4-9.8-.88-2.38-1.66-4.92-2.34-7.63-.57,2.09-1.25,4.18-2.03,6.26-.78,2.08-2.29,5.88-4.54,11.4l-8.62,21.54h30.48Z"/><path d="m43.23,635.65l26.24,60.7h-9.75l-6.34-15.37h-29.43l-6.25,15.37h-9.35l25.79-60.7h9.09Zm7.13,37.95l-6.96-16.93c-1.39-3.23-2.42-5.77-3.1-7.62-.68-1.85-1.29-3.83-1.82-5.93-.44,1.63-.97,3.25-1.57,4.87-.61,1.62-1.78,4.57-3.52,8.87l-6.69,16.75h23.67Z"/><path d="m100.07,635.65h14.53c3.63,0,6.36.11,8.17.33,1.81.22,3.65.66,5.51,1.31,2.05.68,3.81,1.71,5.3,3.09,1.48,1.38,2.64,3.04,3.47,5s1.25,4.04,1.25,6.27c0,3.91-1.14,7.09-3.43,9.53-2.29,2.44-5.42,4.01-9.39,4.69,1.93.92,3.36,1.9,4.31,2.96.95,1.05,2.03,2.85,3.25,5.4l10.18,22.13h-9.91l-7.8-18.22c-1.18-2.72-2.22-4.67-3.1-5.84-.89-1.17-1.97-1.96-3.26-2.36-1.29-.4-3.11-.6-5.47-.6h-4.96v27.02h-8.65v-60.7Zm8.65,7.46v18.75h5.36c10.21,0,15.31-3.16,15.31-9.46,0-3.79-1.34-6.29-4.01-7.49-2.67-1.2-6.14-1.8-10.42-1.8h-6.24Z"/><path d="m221.54,638.18l-.58,8.4c-2.42-1.36-4.85-2.35-7.27-2.98-2.42-.62-5.14-.93-8.16-.93-4.79,0-9.03.97-12.73,2.91-3.7,1.94-6.56,4.67-8.58,8.2-2.03,3.53-3.04,7.49-3.04,11.91s1.03,8.75,3.08,12.38c2.05,3.63,4.95,6.43,8.7,8.4,3.75,1.97,8.05,2.96,12.89,2.96,2.54,0,5.27-.41,8.19-1.24v-17.55h-12.98v-7.38h21.63v30.75c-3.05,1.01-5.94,1.73-8.67,2.16-2.74.43-5.63.64-8.67.64-5.06,0-9.64-.71-13.75-2.13-4.11-1.42-7.66-3.51-10.65-6.26-2.99-2.76-5.24-6.04-6.76-9.87-1.52-3.82-2.28-8.13-2.28-12.93,0-6.31,1.46-11.75,4.37-16.33,2.91-4.58,6.87-8.05,11.89-10.42,5.01-2.37,10.62-3.55,16.83-3.55s11.54.96,16.54,2.89Z"/><path d="m293.83,635.65v7.46h-25.06v17.82h23.24v7.46h-23.24v20.57h25.77v7.38h-34.42v-60.7h33.71Z"/><path d="m378.76,635.65v60.7h-11.18l-19.16-32.92c-3.31-5.87-5.6-10.02-6.85-12.46-1.26-2.44-2.37-5.24-3.35-8.38.5,6.67.75,14.31.75,22.93v30.84h-8.65v-60.7h11.8l20.62,35.77c4.17,7.26,6.96,13.05,8.38,17.37-.38-4.06-.61-6.78-.67-8.18-.06-2.37-.11-4.71-.16-7.02s-.07-3.76-.09-4.35c-.01-.59-.02-2.06-.02-4.4v-29.19h8.56Z"/><path d="m456.42,635.65v7.46h-18.98v53.23h-8.65v-53.23h-19.34v-7.46h46.97Z"/><path d="m496.28,635.65v60.7h-8.65v-60.7h8.65Z"/><path d="m583.3,635.65v60.7h-11.18l-19.16-32.92c-3.31-5.87-5.6-10.02-6.85-12.46-1.26-2.44-2.37-5.24-3.35-8.38.5,6.67.75,14.31.75,22.93v30.84h-8.65v-60.7h11.8l20.62,35.77c4.17,7.26,6.96,13.05,8.38,17.37-.38-4.06-.61-6.78-.67-8.18-.06-2.37-.11-4.71-.16-7.02s-.07-3.76-.09-4.35c-.01-.59-.02-2.06-.02-4.4v-29.19h8.56Z"/><path d="m648.82,635.65l26.24,60.7h-9.75l-6.34-15.37h-29.43l-6.25,15.37h-9.35l25.79-60.7h9.08Zm7.14,37.95l-6.96-16.93c-1.39-3.23-2.42-5.77-3.1-7.62-.68-1.85-1.29-3.83-1.82-5.93-.44,1.63-.97,3.25-1.57,4.87-.61,1.62-1.78,4.57-3.52,8.87l-6.69,16.75h23.67Z"/><path d="m14.77,768.48v16.77h-7.9v-38.69h21.5v6.37h-13.65v9.18h13.11v6.37h-13.06Z"/><path d="m49.37,785.25h-7.82v-38.69h7.82v38.69Z"/><path d="m87.76,778.93v6.32h-22.91v-38.69h7.82v32.37h15.09Z"/><path d="m107.39,785.25h-7.82v-38.69h7.82v38.69Z"/><path d="m158.07,785.25h-8.52l-3.37-8.78h-15.99l-3.31,8.78h-8.07l15.08-38.69h8.69l15.48,38.69Zm-14.26-15.15l-4.98-13.68c-.11-.3-.37-1.15-.76-2.55-.15.58-.3,1.18-.45,1.77-.15.6-.28,1.07-.4,1.43l-4.64,13.03h11.23Z"/><path d="m191.94,778.93v6.32h-22.91v-38.69h7.82v32.37h15.09Z"/><path d="m253.46,785.25h-9.57l-13.48-38.69h8.35l8.24,24.89c.68,1.93,1.3,3.99,1.87,6.2.62-2.49,1.27-4.76,1.95-6.8l8.01-24.3h7.76l-13.14,38.69Z"/><path d="m285.77,785.25h-7.82v-38.69h7.82v38.69Z"/><path d="m324.17,778.93v6.32h-22.91v-38.69h7.82v32.37h15.09Z"/><path d="m358.51,778.93v6.32h-22.91v-38.69h7.82v32.37h15.09Z"/><path d="m405.15,785.25h-8.52l-3.37-8.78h-15.99l-3.31,8.78h-8.07l15.08-38.69h8.69l15.48,38.69Zm-14.26-15.15l-4.98-13.68c-.11-.3-.37-1.15-.76-2.55-.15.58-.3,1.18-.45,1.77-.15.6-.28,1.07-.4,1.43l-4.64,13.03h11.23Z"/><path d="m475.17,777.43l.28,6.83c-3.21.85-6.15,1.27-8.81,1.27-3.02,0-5.82-.4-8.38-1.19s-4.83-2.01-6.78-3.64c-1.95-1.63-3.46-3.66-4.5-6.08-1.05-2.42-1.57-5.2-1.57-8.35s.47-5.98,1.42-8.47,2.32-4.6,4.12-6.33c1.8-1.73,3.97-3.03,6.5-3.89s5.36-1.3,8.5-1.3c2.79,0,5.91.56,9.35,1.67l-.62,6.63c-2.55-1.4-5.31-2.1-8.3-2.1-2.53,0-4.76.54-6.68,1.63-1.93,1.09-3.4,2.6-4.43,4.55-1.03,1.94-1.54,4.18-1.54,6.71s.54,4.98,1.63,7.08c1.09,2.1,2.63,3.72,4.63,4.87s4.34,1.73,7.02,1.73,5.28-.54,8.18-1.61Z"/><path d="m495.05,785.25h-7.9v-38.69h12.7c2.55,0,4.87.28,6.96.84,2.09.56,3.78,1.59,5.06,3.09,1.29,1.5,1.93,3.59,1.93,6.27,0,2.47-.7,4.52-2.1,6.13-1.4,1.62-3.31,2.61-5.75,2.99,1.26.47,2.21,1.16,2.83,2.07s1.26,2.17,1.93,3.79l5.58,13.51h-8.69l-4.25-10.96c-.58-1.59-1.2-2.72-1.84-3.41-.64-.69-1.44-1.14-2.39-1.36-.95-.22-2.31-.33-4.06-.33v16.06Zm-.06-22.03h3.48c2.02,0,3.69-.42,5-1.27,1.31-.85,1.97-2.21,1.97-4.08,0-3.51-2.11-5.27-6.32-5.27h-4.13v10.62Z"/><path d="m550.69,778.93v6.32h-23.14v-38.69h22.91v6.37h-15.09v9.35h13.82v6.32h-13.82v10.34h15.32Z"/><path d="m563.89,784.37l.71-6.94c3.06,1.66,5.98,2.49,8.76,2.49,1.8,0,3.37-.44,4.72-1.33,1.35-.89,2.03-2.19,2.03-3.91s-.57-2.97-1.72-3.71c-1.14-.74-3.22-1.75-6.23-3.04-3.01-1.29-5.26-2.74-6.77-4.33-1.5-1.6-2.25-3.88-2.25-6.84,0-2.47.63-4.54,1.89-6.19,1.26-1.65,2.92-2.87,4.99-3.65,2.07-.78,4.32-1.17,6.76-1.17,3.27,0,6.35.51,9.24,1.53l-.65,6.37c-2.81-1.28-5.48-1.93-8.01-1.93-1.66,0-3.11.37-4.35,1.12-1.24.75-1.85,1.92-1.85,3.53s.46,2.58,1.39,3.14,3.03,1.57,6.3,3.02c3.28,1.44,5.69,2.98,7.24,4.62,1.55,1.63,2.32,3.92,2.32,6.87,0,2.1-.39,3.91-1.16,5.44-.78,1.53-1.85,2.79-3.22,3.78-1.37.99-2.94,1.72-4.71,2.2-1.77.47-3.64.71-5.63.71-3.14,0-6.41-.58-9.81-1.76Z"/><path d="m609.44,770.58v14.67h-7.82v-38.69h10.62c2.19,0,4.17.17,5.93.51,1.77.34,3.37,1,4.8,1.98,1.45,1.04,2.6,2.38,3.43,4.02s1.25,3.4,1.25,5.27c0,2.15-.39,4.02-1.16,5.61s-1.83,2.88-3.17,3.87c-1.34.99-2.92,1.72-4.73,2.18-1.81.46-3.74.69-5.78.69-.77,0-1.9-.04-3.37-.11Zm0-5.98c1.36,0,2.6-.06,3.72-.17,1.12-.11,2.14-.36,3.04-.74s1.65-.99,2.22-1.84c.58-.85.86-1.96.86-3.34,0-1.87-.47-3.23-1.42-4.09-.94-.86-2.07-1.39-3.38-1.59-1.31-.2-3-.32-5.05-.35v12.12Z"/><path d="m675.23,766.16c0,3.85-.75,7.3-2.25,10.34-1.5,3.04-3.68,5.4-6.53,7.09-2.85,1.69-6.21,2.53-10.08,2.53s-7.41-.85-10.28-2.55-5.04-4.08-6.5-7.15c-1.46-3.07-2.2-6.58-2.2-10.55s.74-7.47,2.21-10.51,3.64-5.4,6.5-7.09c2.86-1.69,6.28-2.53,10.27-2.53,3.02,0,5.72.5,8.1,1.5s4.36,2.42,5.95,4.25,2.79,3.98,3.6,6.46,1.22,5.21,1.22,8.21Zm-8.3-.17c0-1.68-.21-3.36-.62-5.04s-1.06-3.22-1.94-4.62c-.88-1.4-1.99-2.52-3.33-3.36-1.34-.84-2.92-1.26-4.73-1.26-2.38,0-4.37.71-5.96,2.12-1.6,1.42-2.77,3.22-3.53,5.42-.75,2.2-1.13,4.44-1.13,6.73s.38,4.52,1.13,6.7c.75,2.18,1.94,3.97,3.55,5.37,1.62,1.4,3.61,2.1,5.99,2.1,1.77,0,3.34-.42,4.69-1.25,1.35-.83,2.45-1.94,3.31-3.34.86-1.4,1.5-2.93,1.93-4.59.43-1.66.64-3.32.64-4.98Z"/></svg>